<?xml version="1.0" standalone="no"?>
<!DOCTYPE svg PUBLIC "-//W3C//DTD SVG 20010904//EN"
 "http://www.w3.org/TR/2001/REC-SVG-20010904/DTD/svg10.dtd">
<svg version="1.0" xmlns="http://www.w3.org/2000/svg"
 width="512.000000pt" height="512.000000pt" viewBox="0 0 512.000000 512.000000"
 preserveAspectRatio="xMidYMid meet">
<metadata>
Created by potrace 1.11, written by Peter Selinger 2001-2013
</metadata>
<g transform="translate(0.000000,512.000000) scale(0.100000,-0.100000)"
fill="#000000" stroke="none">
<path d="M377 5105 c-173 -47 -316 -193 -362 -366 -22 -81 -22 -4277 0 -4358
48 -183 203 -332 385 -371 41 -8 603 -10 2195 -8 l2140 3 57 23 c126 51 242
165 295 292 l28 65 3 2145 c2 1470 -1 2161 -8 2194 -37 175 -192 334 -371 381
-77 21 -4287 21 -4362 0z m3864 -1460 c47 -8 152 -37 234 -65 180 -60 208 -63
235 -17 11 17 20 47 20 65 0 28 3 32 28 32 l29 0 22 -282 c12 -156 25 -304 28
-330 5 -46 5 -48 -19 -48 -21 0 -28 8 -43 48 -122 325 -327 489 -635 509 -157
10 -319 -26 -440 -97 -309 -182 -471 -659 -384 -1124 63 -330 234 -586 468
-701 131 -65 197 -80 341 -79 138 2 235 23 353 79 l72 34 0 365 c0 226 -4 384
-11 416 -20 92 -76 133 -203 146 -61 6 -66 9 -66 30 l0 24 410 0 410 0 0 -24
c0 -21 -5 -24 -56 -29 -82 -8 -124 -34 -154 -93 l-25 -49 -3 -408 -3 -407 -59
-30 c-284 -143 -607 -189 -950 -134 -346 56 -626 255 -779 553 -152 297 -160
632 -22 951 157 365 472 616 836 669 97 14 276 12 366 -4z m-3227 -862 c210
-452 383 -822 386 -823 3 0 174 370 381 823 l375 822 297 3 297 2 0 -25 c0
-24 -2 -25 -61 -25 -117 0 -193 -43 -220 -125 -10 -31 -14 -210 -16 -813 -4
-800 0 -927 35 -985 28 -50 90 -78 182 -84 76 -6 80 -7 80 -29 l0 -24 -445 0
-445 0 0 25 c0 24 3 25 58 25 132 0 210 50 231 150 14 63 16 1579 2 1565 -5
-6 -190 -405 -412 -888 -379 -826 -404 -878 -426 -875 -21 3 -68 99 -424 873
-221 479 -405 879 -409 890 -5 11 -8 -324 -7 -780 2 -778 3 -801 22 -840 29
-57 93 -87 196 -93 75 -4 79 -6 79 -28 l0 -24 -365 0 -365 0 0 24 c0 22 4 24
74 28 90 6 157 36 186 83 37 60 41 171 38 977 -3 573 -7 772 -16 800 -29 86
-102 136 -213 145 -64 6 -69 8 -69 30 l0 23 297 -2 297 -3 380 -822z"/>
</g>
</svg>
